<svg xmlns="http://www.w3.org/2000/svg" width="45" height="39" viewBox="0 0 45 39">
    <g fill="#338CFF" fill-rule="nonzero">
        <path d="M42.778 31.443h-5.926v-8.957c-.005-4.533-3.65-8.206-8.148-8.21h-7.448a3.37 3.37 0 0 0-.515-3.322v-.504C20.74 4.679 16.098 0 10.37 0 4.642 0 0 4.679 0 10.45v3.732c-.008 4.221 2.512 8.03 6.381 9.648l.1.04v5.082l-3.66 4.862a3.83 3.83 0 0 0-2.265 3.502v.844c0 .413.331.747.74.747h5.185c.223 0 .433-.1.574-.274l6.666-8.21a.75.75 0 0 0 .168-.473v-.42c.398.268.813.51 1.242.724l-2.68 3.56a3.846 3.846 0 0 0-2.266 3.502v.844c0 .413.332.747.74.747h5.186a.739.739 0 0 0 .579-.28l5.703-7.184h1.048l-.261 2.634a4.41 4.41 0 0 0 1.487 3.76 4.334 4.334 0 0 0 3.908.938l1.777-.448a4.578 4.578 0 0 0 3.554.383l3.251-.982.13.197a2.178 2.178 0 0 0 3.672-.048l.032.048a2.18 2.18 0 0 0 2.455.886A2.203 2.203 0 0 0 45 36.701v-3.02a2.233 2.233 0 0 0-2.222-2.238zm-7.408-8.957v1.144a4.415 4.415 0 0 0-4.777-.755 4.477 4.477 0 0 0-2.63 4.09v2.985h-1.482V15.768h2.223c3.68.004 6.662 3.01 6.666 6.718zM1.481 14.182V10.45c.002-4.837 3.814-8.798 8.611-8.95 4.798-.15 8.848 3.563 9.15 8.39a3.294 3.294 0 0 0-1.094-.187h-.37v1.493h.37c1.023 0 1.852.836 1.852 1.866 0 1.03-.83 1.866-1.852 1.866h-.37v1.493h.37c.29 0 .577-.038.857-.113-1.026 4.23-4.923 7.104-9.234 6.811a.642.642 0 0 0-.036-.003c-4.654-.33-8.26-4.234-8.254-8.934zm4.65 23.232H2.036v-.098c0-.975.602-1.848 1.509-2.188a.74.74 0 0 0 .332-.249l3.934-5.225a.75.75 0 0 0 .151-.45v-4.856a10.262 10.262 0 0 0 1.669.258l.119.006.486.899a11.324 11.324 0 0 0 2.17 2.83v1.342l-6.277 7.73zm15.165-6.98l-5.54 6.98h-4.09v-.098a2.344 2.344 0 0 1 1.51-2.188.741.741 0 0 0 .332-.249l3.934-5.224a.75.75 0 0 0 .15-.452v-3.732h-1.48v3.481l-.066.087a9.828 9.828 0 0 1-4.507-4.243l-.119-.219c.155-.016.31-.034.461-.057 4.504-.668 8.05-4.218 8.74-8.752H25V29.95h-2.222V25.47h-1.482v4.963zm6.919 6.893a2.862 2.862 0 0 1-2.58-.62 2.911 2.911 0 0 1-.981-2.482l.276-2.782h3.033v2.812a4.65 4.65 0 0 0 .998 2.884l-.746.188zm10.893.087a.702.702 0 0 1-.428-.147l1.095-.33a.706.706 0 0 1-.667.477zm4.41-.712a.704.704 0 1 1-1.295.395l-1.051-1.59a.738.738 0 0 0-.83-.3L33.48 37.28a3.116 3.116 0 0 1-2.772-.492 3.167 3.167 0 0 1-1.264-2.534v-7.29c0-1.65 1.327-2.987 2.963-2.987 1.637 0 2.963 1.337 2.963 2.986v5.225c0 .412.332.746.741.746h6.667c.409 0 .74.335.74.747v3.02z"/>
        <ellipse cx="4.444" cy="14.182" rx="1.481" ry="1.493"/>
        <ellipse cx="13.333" cy="14.182" rx="1.481" ry="1.493"/>
        <path d="M8.889 19.407a2.233 2.233 0 0 0 2.222-2.24H9.63a.744.744 0 0 1-.741.747.744.744 0 0 1-.74-.747H6.666a2.233 2.233 0 0 0 2.222 2.24zM8.898 10.402c.25.095.532.046.737-.127a.75.75 0 0 0 .251-.71l-.122-.648a2.412 2.412 0 0 1 .447-1.952 2.258 2.258 0 0 1 1.68-.878l-.085-1.49a3.765 3.765 0 0 0-2.762 1.448 3.893 3.893 0 0 0-.806 2.35 2.007 2.007 0 0 1-.523-.672c-.351-.7-.406-1.492-.142-2.069L6.228 5.03c-.456.996-.394 2.255.165 3.368.604 1.203 1.568 1.65 2.505 2.005z"/>
    </g>
</svg>
