<svg xmlns="http://www.w3.org/2000/svg" width="42" height="42" viewBox="0 0 42 42">
    <g fill="#13123F" fill-rule="nonzero">
        <path d="M37.898 3.61h-3.91V2.46A2.464 2.464 0 0 0 31.528 0a2.464 2.464 0 0 0-2.462 2.46v1.15h-13.78V2.46A2.464 2.464 0 0 0 12.823 0a2.464 2.464 0 0 0-2.46 2.46v1.18a.819.819 0 0 0-.22-.03H6.877a4.106 4.106 0 0 0-4.101 4.1v13.974a.82.82 0 0 0 1.64 0v-9.625h29.573a.82.82 0 0 0 0-1.641H4.415V7.711A2.464 2.464 0 0 1 6.876 5.25h3.269a.822.822 0 0 0 .218-.03v1.055a2.464 2.464 0 0 0 2.461 2.461 2.464 2.464 0 0 0 2.461-2.46V5.25h13.781v1.025a2.464 2.464 0 0 0 2.461 2.461 2.464 2.464 0 0 0 2.461-2.46V5.25h3.91a2.464 2.464 0 0 1 2.461 2.46v31.172c0 .815-.662 1.477-1.477 1.477a1.479 1.479 0 0 1-1.477-1.477V36.76a.82.82 0 0 0-.82-.82h-9.542a.82.82 0 0 0 0 1.64h8.722v1.302c0 .534.135 1.037.372 1.477H3.117a1.478 1.478 0 0 1-1.476-1.476V37.58H20a.82.82 0 0 0 0-1.641h-8.196a6.712 6.712 0 0 0 2.344-5.096 6.734 6.734 0 0 0-6.727-6.727 6.734 6.734 0 0 0-6.726 6.727c0 2.035.91 3.861 2.343 5.096H.82a.82.82 0 0 0-.82.82v2.123A3.12 3.12 0 0 0 3.117 42h35.765A3.121 3.121 0 0 0 42 38.882V7.711a4.106 4.106 0 0 0-4.102-4.102zM13.645 6.274a.821.821 0 0 1-1.641 0V2.461a.821.821 0 0 1 1.64 0v3.814zm18.703 0a.821.821 0 0 1-1.641 0V2.461a.821.821 0 0 1 1.64 0v3.814zM2.336 30.844a5.092 5.092 0 0 1 5.086-5.086 5.092 5.092 0 0 1 5.086 5.086 5.092 5.092 0 0 1-5.086 5.086 5.092 5.092 0 0 1-5.086-5.086z"/>
        <path d="M37.853 10.146a.504.504 0 0 0-.706 0 .504.504 0 0 0 0 .707.504.504 0 0 0 .706 0 .504.504 0 0 0 0-.707zM23.853 36.146a.503.503 0 0 0-.707 0 .505.505 0 0 0 0 .708.503.503 0 0 0 .707 0 .505.505 0 0 0 0-.708zM18 24c-1.654 0-3 1.346-3 3s1.346 3 3 3 3-1.346 3-3-1.346-3-3-3zm0 4.421A1.423 1.423 0 0 1 16.579 27c0-.784.637-1.421 1.421-1.421s1.421.637 1.421 1.421-.637 1.421-1.421 1.421zM26 24c-1.654 0-3 1.346-3 3s1.346 3 3 3 3-1.346 3-3-1.346-3-3-3zm0 4.421A1.423 1.423 0 0 1 24.579 27c0-.784.637-1.421 1.421-1.421s1.421.637 1.421 1.421-.637 1.421-1.421 1.421zM33 24c-1.654 0-3 1.346-3 3s1.346 3 3 3 3-1.346 3-3-1.346-3-3-3zm0 4.421A1.423 1.423 0 0 1 31.579 27c0-.784.637-1.421 1.421-1.421s1.421.637 1.421 1.421-.637 1.421-1.421 1.421zM9 17c-1.654 0-3 1.346-3 3s1.346 3 3 3 3-1.346 3-3-1.346-3-3-3zm0 4.421A1.423 1.423 0 0 1 7.579 20c0-.784.637-1.421 1.421-1.421s1.421.637 1.421 1.421S9.784 21.421 9 21.421zM26 17c-1.654 0-3 1.346-3 3s1.346 3 3 3 3-1.346 3-3-1.346-3-3-3zm0 4.421A1.423 1.423 0 0 1 24.579 20c0-.784.637-1.421 1.421-1.421s1.421.637 1.421 1.421-.637 1.421-1.421 1.421zM33 17c-1.654 0-3 1.346-3 3s1.346 3 3 3 3-1.346 3-3-1.346-3-3-3zm0 4.421A1.423 1.423 0 0 1 31.579 20c0-.784.637-1.421 1.421-1.421s1.421.637 1.421 1.421-.637 1.421-1.421 1.421zM18 17c-1.654 0-3 1.346-3 3s1.346 3 3 3 3-1.346 3-3-1.346-3-3-3zm0 4.421A1.423 1.423 0 0 1 16.579 20c0-.784.637-1.421 1.421-1.421s1.421.637 1.421 1.421-.637 1.421-1.421 1.421zM9.774 28.246a.728.728 0 0 0-1.09 0l-2.51 2.73-.858-.933a.728.728 0 0 0-1.09 0 .891.891 0 0 0 0 1.186l1.403 1.525a.74.74 0 0 0 .545.246.74.74 0 0 0 .545-.246l3.055-3.323a.891.891 0 0 0 0-1.185z"/>
    </g>
</svg>
