<svg xmlns="http://www.w3.org/2000/svg" width="43" height="54" viewBox="0 0 43 54">
    <g fill="#13123F" fill-rule="nonzero">
        <path d="M18.228 28.511V15.856a1.997 1.997 0 0 0 1.263-1.86c0-1.1-.885-1.996-1.973-1.996H9.925c-1.088 0-1.973.895-1.973 1.996 0 .847.525 1.57 1.262 1.86V28.51C4.112 30.414.721 35.303.721 40.85.721 48.1 6.553 54 13.721 54c7.169 0 13-5.9 13-13.151 0-5.546-3.39-10.435-8.493-12.338zM9.925 13.53h7.593c.254 0 .461.21.461.467a.464.464 0 0 1-.461.466H9.925a.465.465 0 0 1-.461-.466c0-.257.207-.467.461-.467zm.277 16.255a.764.764 0 0 0 .524-.728V15.992h5.99v13.064c0 .332.213.627.525.728a11.51 11.51 0 0 1 7.306 7.164c-.591-.172-1.33-.323-2.234-.46-2.301-.351-5.352-.544-8.592-.544s-6.29.193-8.592.543c-.903.138-1.642.289-2.234.461a11.51 11.51 0 0 1 7.307-7.164zm14.311 8.75c-1.33.467-4.94 1.061-10.792 1.061-5.851 0-9.462-.594-10.791-1.06 1.329-.468 4.94-1.061 10.791-1.061 5.852 0 9.463.593 10.792 1.06zM13.721 52.47c-6.334 0-11.488-5.213-11.488-11.621 0-.316.013-.63.037-.94.665.263 1.604.48 2.86.672 2.3.35 5.352.543 8.591.543 3.24 0 6.291-.193 8.592-.543 1.256-.191 2.194-.409 2.86-.672.024.31.037.624.037.94 0 6.408-5.154 11.621-11.489 11.621z"/>
        <path d="M6.963 34.792c.139.14.313.208.487.208.2 0 .398-.09.541-.269a11.525 11.525 0 0 1 2.387-2.23c.342-.237.446-.738.233-1.119-.213-.38-.662-.496-1.004-.259a13.034 13.034 0 0 0-2.699 2.522.878.878 0 0 0 .055 1.147zM23.298 45.12c-.421-.231-.976-.119-1.24.251-.327.461-.702.905-1.115 1.32-.326.328-.288.827.086 1.114.17.13.382.195.592.195.25 0 .5-.092.678-.27.475-.478.907-.99 1.286-1.522.263-.37.135-.857-.287-1.088zM19.492 47.174c-1.472 1.236-3.231 1.997-5.087 2.2-.418.045-.722.445-.68.893.04.42.37.733.756.733a.704.704 0 0 0 .078-.004c2.142-.234 4.172-1.111 5.871-2.539a.856.856 0 0 0 .13-1.144.726.726 0 0 0-1.068-.14zM42.721 15.177c0-1.2-1.046-2.177-2.331-2.177h-9.337c-1.286 0-2.332.977-2.332 2.177 0 .941.646 1.743 1.544 2.045v31.684c0 2.81 2.448 5.094 5.456 5.094 3.009 0 5.457-2.285 5.457-5.094V17.222c.898-.302 1.543-1.104 1.543-2.045zm-11.668-.618h9.337c.365 0 .661.277.661.618 0 .34-.296.617-.661.617h-9.337c-.365 0-.661-.277-.661-.617 0-.34.296-.618.66-.618zm4.668 8.753c-.745 0-2.473.047-3.786.435v-6.394h7.573v6.394c-1.314-.388-3.041-.435-3.787-.435zm3.228 1.905c-.653.177-1.753.346-3.228.346-1.474 0-2.574-.17-3.228-.346.654-.177 1.754-.346 3.228-.346 1.475 0 2.575.169 3.228.346zM35.721 52.44c-2.087 0-3.786-1.585-3.786-3.534v-22.22c1.313.388 3.04.435 3.786.435s2.473-.047 3.787-.436v3.705h-3.55c-.46 0-.834.35-.834.78 0 .43.374.78.835.78h3.549v.766h-1.196c-.46 0-.835.35-.835.78 0 .43.374.78.835.78h1.196v.766h-3.55c-.46 0-.834.35-.834.78 0 .43.374.78.835.78h3.549v.766h-1.196c-.46 0-.835.35-.835.78 0 .43.374.78.835.78h1.196v.767h-3.55c-.46 0-.834.349-.834.78 0 .43.374.779.835.779h3.549v.767h-1.196c-.46 0-.835.349-.835.779 0 .43.374.78.835.78h1.196v.767h-3.55c-.46 0-.834.349-.834.78 0 .43.374.779.835.779h3.549v3c0 1.949-1.699 3.534-3.787 3.534zM11.126 4.86c1.27 0 2.303-1.09 2.303-2.43S12.396 0 11.126 0 8.823 1.09 8.823 2.43s1.033 2.43 2.303 2.43zm0-3.272c.44 0 .798.377.798.842 0 .464-.358.842-.798.842-.44 0-.798-.378-.798-.842 0-.465.358-.842.798-.842zM11.126 10.887c1.27 0 2.303-1.09 2.303-2.43s-1.033-2.43-2.303-2.43-2.303 1.09-2.303 2.43 1.033 2.43 2.303 2.43zm0-3.272c.44 0 .798.378.798.842 0 .465-.358.842-.798.842-.44 0-.798-.377-.798-.842 0-.464.358-.842.798-.842zM16.316 7.873c1.27 0 2.303-1.09 2.303-2.43s-1.033-2.43-2.303-2.43-2.304 1.09-2.304 2.43 1.034 2.43 2.304 2.43zm0-3.272c.44 0 .798.378.798.842 0 .465-.358.843-.798.843-.44 0-.798-.378-.798-.843 0-.464.358-.842.798-.842zM15.721 23c.553 0 1-.34 1-.759V17.76c0-.42-.447-.759-1-.759-.552 0-1 .34-1 .759v4.482c0 .42.448.759 1 .759zM15.721 28c.553 0 1-.393 1-.878v-2.244c0-.485-.447-.878-1-.878-.552 0-1 .393-1 .878v2.244c0 .485.448.878 1 .878z"/>
    </g>
</svg>
