<svg xmlns="http://www.w3.org/2000/svg" width="19" height="13" viewBox="0 0 19 13">
    <g fill="#6E6B92" fill-rule="nonzero" opacity=".6">
        <path d="M17.027 13c.396 0 .739-.13 1.03-.387L13.07 7.648a92 92 0 0 0-.345.247c-.373.274-.676.488-.909.64a5.61 5.61 0 0 1-.928.47 2.84 2.84 0 0 1-1.081.24h-.02a2.84 2.84 0 0 1-1.08-.24 5.591 5.591 0 0 1-.929-.47 23.138 23.138 0 0 1-.909-.64l-.344-.248-4.989 4.966a1.51 1.51 0 0 0 1.03.387h14.462zM1.642 5.363a4.85 4.85 0 0 1-.933-.775v6.883l4.13-3.987a320.004 320.004 0 0 0-3.197-2.12zM17.96 5.363a272.619 272.619 0 0 0-3.207 2.122l4.13 3.986V4.588a5.047 5.047 0 0 1-.923.775z"/>
        <path d="M17.26 0H2.332c-.52 0-.921.163-1.202.488-.28.325-.42.732-.42 1.22 0 .395.185.822.557 1.282.372.46.767.821 1.187 1.084.23.15.922.597 2.079 1.338A675.85 675.85 0 0 1 7.19 7.126l.151.1.28.186c.22.147.402.266.548.357.145.09.32.192.527.305.206.112.4.197.583.253.183.057.352.085.507.085h.02c.156 0 .325-.028.508-.085.182-.056.376-.14.583-.253.206-.113.382-.215.527-.305.146-.091.328-.21.548-.357a68.16 68.16 0 0 1 .431-.286 9620.369 9620.369 0 0 1 4.746-3.051c.494-.32.906-.705 1.238-1.155.33-.45.496-.923.496-1.418 0-.413-.16-.766-.481-1.06A1.634 1.634 0 0 0 17.26 0z"/>
    </g>
</svg>
