<svg xmlns="http://www.w3.org/2000/svg" width="42" height="55" viewBox="0 0 42 55">
    <g fill="#13123F" fill-rule="nonzero">
        <path d="M27.666 6.869a15.368 15.368 0 0 0-17.859 2.87c-5.49 5.501-6.04 14.273-1.278 20.404a.852.852 0 0 0 1.198.15.857.857 0 0 0 .15-1.2C5.642 23.64 6.131 15.84 11.013 10.947a13.667 13.667 0 0 1 15.883-2.553.856.856 0 0 0 .77-1.527zM34.59 13.851a.842.842 0 0 0-1.139-.38.868.868 0 0 0-.374 1.157c2.657 5.344 1.64 11.782-2.533 16.02-4.85 4.925-12.583 5.418-17.987 1.147a.84.84 0 0 0-1.19.151.87.87 0 0 0 .148 1.209 15.09 15.09 0 0 0 9.382 3.264c3.946 0 7.877-1.538 10.847-4.554 4.691-4.764 5.835-12.003 2.847-18.014zM32.346 10.484a15.48 15.48 0 0 0-1.34-1.353.835.835 0 0 0-1.186.074.852.852 0 0 0 .073 1.196 13.837 13.837 0 0 1 1.194 1.205.835.835 0 0 0 1.186.073.852.852 0 0 0 .073-1.195z"/>
        <path d="M40.97 22.388a2.968 2.968 0 0 0 0-3.074l-1.129-1.87a1.23 1.23 0 0 1-.162-.824l.337-2.16a2.954 2.954 0 0 0-1.168-2.846L37.1 10.329a1.221 1.221 0 0 1-.463-.7l-.51-2.126a2.925 2.925 0 0 0-2.151-2.175l-2.105-.515a1.206 1.206 0 0 1-.692-.468l-1.272-1.768a2.895 2.895 0 0 0-2.816-1.18l-2.138.34a1.197 1.197 0 0 1-.815-.163l-1.85-1.14a2.884 2.884 0 0 0-3.042 0l-1.85 1.14c-.244.15-.533.208-.816.163l-2.136-.34a2.895 2.895 0 0 0-2.817 1.18l-1.272 1.767c-.168.234-.414.4-.692.468l-2.104.515a2.925 2.925 0 0 0-2.152 2.175l-.51 2.127a1.22 1.22 0 0 1-.463.699l-1.749 1.285a2.954 2.954 0 0 0-1.167 2.846l.336 2.16a1.23 1.23 0 0 1-.161.825l-1.129 1.87a2.968 2.968 0 0 0 0 3.074l1.129 1.87c.148.246.206.539.161.824l-.336 2.16a2.954 2.954 0 0 0 1.167 2.846l1.749 1.285c.231.17.395.418.463.7l.509 2.126a2.925 2.925 0 0 0 2.152 2.175l.879.215-5.948 13.408a.874.874 0 0 0 .092.868.853.853 0 0 0 .793.347l4.785-.578 2.757 3.995a.855.855 0 0 0 1.486-.141l6.074-13.694.77.474c.469.29.995.434 1.52.434.527 0 1.052-.145 1.522-.434l.797-.491 6.082 13.71a.858.858 0 0 0 .783.513.855.855 0 0 0 .703-.37l2.757-3.996 4.785.578a.854.854 0 0 0 .793-.347.874.874 0 0 0 .091-.868l-5.95-13.415.846-.207a2.925 2.925 0 0 0 2.152-2.175l.51-2.127c.067-.28.23-.529.462-.699l1.75-1.285a2.954 2.954 0 0 0 1.167-2.847l-.337-2.16a1.23 1.23 0 0 1 .162-.824l1.129-1.87zM11.457 52.382l-2.185-3.166a.854.854 0 0 0-.806-.365l-3.792.458 5.419-12.216c.099.073.188.162.26.264l1.273 1.767c.12.168.257.32.405.456l-2.852 6.43a.87.87 0 0 0 .431 1.145.857.857 0 0 0 1.133-.436l2.843-6.407c.28.039.567.038.856-.008l2.138-.34c.128-.02.257-.018.383.003l-5.506 12.415zm25.438-3.073l-3.793-.458a.853.853 0 0 0-.805.365l-2.185 3.166-5.509-12.42c.116-.016.234-.016.35.002l2.137.34c.3.048.6.047.89.003l2.845 6.412a.857.857 0 0 0 1.133.437.87.87 0 0 0 .432-1.146l-2.863-6.454c.138-.13.266-.273.38-.431l1.272-1.768a1.21 1.21 0 0 1 .288-.284l5.428 12.236zm2.61-27.824l-1.129 1.87a2.982 2.982 0 0 0-.391 1.996l.336 2.16a1.22 1.22 0 0 1-.482 1.176l-1.749 1.285a2.957 2.957 0 0 0-1.12 1.693l-.51 2.127c-.107.446-.447.79-.889.898l-2.104.515a2.923 2.923 0 0 0-1.676 1.133l-1.272 1.767a1.195 1.195 0 0 1-1.162.487l-2.137-.34a2.9 2.9 0 0 0-1.975.396l-1.85 1.14a1.191 1.191 0 0 1-1.256 0l-1.85-1.14a2.901 2.901 0 0 0-1.975-.396l-2.138.34a1.195 1.195 0 0 1-1.163-.487l-1.272-1.768a2.923 2.923 0 0 0-1.675-1.133L7.96 34.69a1.208 1.208 0 0 1-.888-.897l-.51-2.127a2.957 2.957 0 0 0-1.12-1.694l-1.749-1.285a1.22 1.22 0 0 1-.482-1.175l.337-2.16c.107-.69-.032-1.399-.392-1.996l-1.128-1.87a1.225 1.225 0 0 1 0-1.269l1.128-1.87c.36-.597.5-1.305.392-1.996l-.337-2.16a1.22 1.22 0 0 1 .482-1.175l1.75-1.286a2.957 2.957 0 0 0 1.12-1.693l.51-2.127c.107-.446.447-.79.888-.898l2.105-.514a2.922 2.922 0 0 0 1.675-1.133l1.272-1.767a1.195 1.195 0 0 1 1.163-.487l2.137.34a2.898 2.898 0 0 0 1.975-.396l1.85-1.14a1.191 1.191 0 0 1 1.255 0l1.851 1.14c.59.364 1.292.504 1.975.396l2.138-.34c.449-.071.895.115 1.162.487l1.272 1.768a2.923 2.923 0 0 0 1.676 1.132l2.104.515c.441.108.782.452.889.898l.509 2.127c.163.68.56 1.282 1.12 1.693l1.75 1.286c.368.27.552.72.481 1.175l-.336 2.16c-.107.69.032 1.398.392 1.995l1.128 1.87c.236.392.236.878 0 1.27z"/>
        <path d="M31.003 18.416a1.557 1.557 0 0 0-1.317-1.056l-5.264-.61-2.22-4.704a1.568 1.568 0 0 0-1.435-.897c-.624 0-1.174.344-1.436.897l-2.22 4.704-5.264.61a1.557 1.557 0 0 0-1.317 1.056 1.506 1.506 0 0 0 .43 1.611l3.892 3.517-1.033 5.08a1.513 1.513 0 0 0 .621 1.551 1.598 1.598 0 0 0 1.701.098l4.626-2.53 4.625 2.53c.545.298 1.196.26 1.701-.098.505-.358.743-.952.622-1.55l-1.033-5.08 3.891-3.518a1.506 1.506 0 0 0 .43-1.61zm-5.869 4.198a.843.843 0 0 0-.264.794l1.057 5.199-4.733-2.59a.89.89 0 0 0-.855 0l-4.733 2.59 1.057-5.199a.842.842 0 0 0-.264-.794l-3.982-3.599 5.387-.624a.874.874 0 0 0 .691-.49l2.272-4.814 2.272 4.813c.127.27.389.456.691.491l5.387.624-3.983 3.599z"/>
    </g>
</svg>
