<svg xmlns="http://www.w3.org/2000/svg" width="47" height="41" viewBox="0 0 47 41">
    <g fill="#338CFF" fill-rule="nonzero">
        <path d="M33.002.043c-2.583 0-5.105.724-7.298 2.093-.42.227-3.607 2.064-3.113 5.41.181 1.223.83 2.097 1.457 2.941.886 1.193 1.73 2.332 1.5 4.638-.012-.007-.024-.015-.037-.021a2.743 2.743 0 0 0-2.101-.165 2.731 2.731 0 0 0-1.512 1.203 3.44 3.44 0 0 0-2.437-.966 5.66 5.66 0 0 1 .009-1.098 6.954 6.954 0 0 0-.03-1.675c-.201-1.48-1.052-2.774-2.396-3.643-1.62-1.047-3.798-1.355-5.684-.802-3.428 1.004-5.41 4.604-4.419 8.025.293 1.009.831 1.94 1.556 2.692.381.395.587.916.566 1.43-.061 1.46.141 2.91.6 4.31.986 2.997 3.126 5.476 6.028 6.978a12.445 12.445 0 0 0 5.728 1.418c1.167 0 2.333-.17 3.465-.515.627-.19 1.241-.431 1.826-.716a7.429 7.429 0 0 0 3.568-3.75 7.47 7.47 0 0 0 .604-2.867c.434.08.893.057 1.339-.087 1.43-.46 2.225-2.017 1.77-3.471l-.704-2.256a4.564 4.564 0 0 0-3.172-3.053 4.586 4.586 0 0 0-2.876.149c.666-3.64-.643-5.403-1.715-6.847-.538-.724-1.002-1.35-1.116-2.118-.326-2.203 2.078-3.486 2.177-3.538a.929.929 0 0 0 .07-.04 11.92 11.92 0 0 1 6.348-1.829c6.706 0 12.162 5.59 12.162 12.46 0 7.54-5.938 13.875-10.92 17.862-4.663 3.733-9.39 6.165-10.745 6.831-1.304-.64-5.719-2.91-10.196-6.398a.92.92 0 0 0-1.289.158.913.913 0 0 0 .158 1.285c5.485 4.27 10.722 6.7 10.942 6.802a.92.92 0 0 0 .77 0c.234-.108 5.812-2.697 11.48-7.227 3.35-2.678 6.025-5.478 7.95-8.322C45.76 21.711 47 18.013 47 14.334 47 6.453 40.72.042 33.002.042zm-14.75 18.315c.416-.365.865-.759 1.11-1.344a1.588 1.588 0 0 1 1.602.938l-.382.749-2.656-.052c.11-.102.22-.198.326-.291zm8.068 1.21l.305-.597a2.748 2.748 0 0 1 3.005-1.11 2.738 2.738 0 0 1 1.904 1.833l.704 2.255c.157.5-.104 1.032-.58 1.185a.92.92 0 0 1-1.127-.513l-.537-1.718a.918.918 0 0 0-1.753.544l.551 1.763c.831 2.675-.384 5.504-2.89 6.725-.497.243-1.02.448-1.554.61-5.292 1.61-11.218-1.46-12.94-6.7a10.324 10.324 0 0 1-.511-3.664 3.799 3.799 0 0 0-1.076-2.774 4.603 4.603 0 0 1-1.116-1.933c-.712-2.455.711-5.039 3.173-5.76.458-.134.939-.2 1.42-.2.976 0 1.955.27 2.747.782.628.406 1.411 1.143 1.575 2.353.077.567.05.898.02 1.282-.038.466-.08.993.05 1.886.074.514-.027.62-.65 1.166-.171.15-.366.32-.567.518l-.007.006-.01.011a1.721 1.721 0 0 0-.403 1.873c.255.644.87 1.069 1.566 1.082l3.15.063a1.48 1.48 0 0 0 1.346-.803l1.328-2.598a.91.91 0 0 1 .534-.455.914.914 0 0 1 .7.055.91.91 0 0 1 .402 1.23l-.047.092a4.588 4.588 0 0 0-.388.759l-.894 1.748a3.34 3.34 0 0 1-3.017 1.802l-3.97-.08a.916.916 0 1 0-.037 1.83l3.97.08a5.126 5.126 0 0 0 1.622-.23 5.211 5.211 0 0 0 2.375-1.549l.647 2.072a.918.918 0 0 0 1.753-.544l-.818-2.619a2.742 2.742 0 0 1 .045-1.757z"/>
        <path d="M10.742 30.494l-.026-.023a.92.92 0 0 0-1.296.069.913.913 0 0 0 .07 1.292l.026.024a.916.916 0 0 0 1.296-.07.913.913 0 0 0-.07-1.292zM21.324 2.155A13.754 13.754 0 0 0 13.998.043C6.279.043 0 6.453 0 14.333c0 4.976 2.245 9.933 6.672 14.732a.917.917 0 0 0 1.297.054.913.913 0 0 0 .054-1.293c-4.105-4.45-6.187-8.99-6.187-13.493 0-6.87 5.456-12.46 12.162-12.46 2.247 0 4.442.633 6.347 1.83a.92.92 0 0 0 1.266-.286.914.914 0 0 0-.287-1.262zM33.002 4.393a.917.917 0 0 0-.918.915c0 .506.411.915.918.915h.005a.914.914 0 1 0-.005-1.83zM40.975 8.617a9.75 9.75 0 0 0-4.547-3.592.914.914 0 1 0-.659 1.709c3.075 1.178 5.14 4.232 5.14 7.6 0 .505.412.914.919.914.507 0 .918-.41.918-.915 0-2.06-.613-4.037-1.771-5.716z"/>
    </g>
</svg>
