<svg xmlns="http://www.w3.org/2000/svg" width="47" height="47" viewBox="0 0 47 47">
    <g fill="#338CFF" fill-rule="nonzero">
        <path d="M30.475 32.313a1.584 1.584 0 0 1 0-1.516 3.427 3.427 0 0 0-.854-4.294.918.918 0 1 0-1.156 1.427 1.59 1.59 0 0 1 .396 1.992 3.414 3.414 0 0 0 0 3.266 1.59 1.59 0 0 1-.396 1.993 3.414 3.414 0 0 0-1.25 3.017 1.59 1.59 0 0 1-1.129 1.69 3.414 3.414 0 0 0-2.31 2.309 1.59 1.59 0 0 1-1.688 1.129 3.414 3.414 0 0 0-3.018 1.25 1.59 1.59 0 0 1-1.992.396 3.414 3.414 0 0 0-3.266 0 1.59 1.59 0 0 1-1.993-.397 3.414 3.414 0 0 0-3.017-1.25 1.59 1.59 0 0 1-1.69-1.128 3.414 3.414 0 0 0-2.309-2.31 1.59 1.59 0 0 1-1.129-1.689 3.414 3.414 0 0 0-1.25-3.017 1.59 1.59 0 0 1-.396-1.993 3.414 3.414 0 0 0 0-3.266 1.59 1.59 0 0 1 .397-1.992 3.414 3.414 0 0 0 1.25-3.018 1.59 1.59 0 0 1 1.128-1.69 3.414 3.414 0 0 0 2.31-2.308 1.59 1.59 0 0 1 1.689-1.13 3.413 3.413 0 0 0 3.017-1.249 1.59 1.59 0 0 1 1.993-.396 3.414 3.414 0 0 0 3.266 0 1.59 1.59 0 0 1 1.992.396.918.918 0 0 0 1.426-1.156 3.426 3.426 0 0 0-4.294-.854 1.584 1.584 0 0 1-1.515 0 3.427 3.427 0 0 0-4.294.854c-.34.42-.864.637-1.4.58a3.427 3.427 0 0 0-3.64 2.432 1.584 1.584 0 0 1-1.072 1.072c-1.581.47-2.604 2-2.433 3.64.056.537-.16 1.06-.58 1.4a3.427 3.427 0 0 0-.854 4.294 1.584 1.584 0 0 1 0 1.516 3.427 3.427 0 0 0 .854 4.294c.42.34.637.863.58 1.4a3.427 3.427 0 0 0 2.433 3.64c.517.154.918.555 1.071 1.072.47 1.581 2.001 2.604 3.64 2.433.537-.057 1.06.16 1.4.58a3.427 3.427 0 0 0 4.295.854 1.584 1.584 0 0 1 1.515 0 3.425 3.425 0 0 0 4.294-.854c.34-.42.864-.637 1.4-.58a3.427 3.427 0 0 0 3.641-2.433 1.584 1.584 0 0 1 1.072-1.071c1.58-.47 2.603-2 2.432-3.64-.056-.538.16-1.061.58-1.401a3.427 3.427 0 0 0 .854-4.294z"/>
        <path d="M25.984 30.637a.918.918 0 0 0-.918.918v.062a.918.918 0 0 0 .91.925h.007a.918.918 0 0 0 .918-.91v-.077a.918.918 0 0 0-.917-.918zM25.335 35.32a.918.918 0 0 0-1.227.425 9.684 9.684 0 0 1-8.663 5.431c-5.306 0-9.622-4.316-9.622-9.62 0-5.306 4.316-9.622 9.622-9.622a.918.918 0 0 0 0-1.836c-6.318 0-11.458 5.14-11.458 11.457 0 6.318 5.14 11.457 11.458 11.457a11.42 11.42 0 0 0 6.165-1.799 11.484 11.484 0 0 0 4.15-4.667.918.918 0 0 0-.425-1.227z"/>
        <path d="M10.674 28.58a2.978 2.978 0 0 0-2.975 2.975 2.978 2.978 0 0 0 2.975 2.975 2.978 2.978 0 0 0 2.974-2.975 2.978 2.978 0 0 0-2.974-2.974zm0 4.114a1.14 1.14 0 0 1 0-2.277c.628 0 1.138.51 1.138 1.138a1.14 1.14 0 0 1-1.138 1.139zM44.297 4.386a.918.918 0 0 0-1.293-.112 2.926 2.926 0 0 1-1.88.683 4.766 4.766 0 0 0-4.76 4.76 2.928 2.928 0 0 1-2.924 2.925 4.768 4.768 0 0 0-4.488 3.175 4.984 4.984 0 0 0-2.246-.531c-1.337 0-2.595.52-3.54 1.467l-1.929 1.927a5.013 5.013 0 0 0 0 7.082 4.975 4.975 0 0 0 3.541 1.467c1.338 0 2.595-.521 3.541-1.467l1.928-1.928a4.975 4.975 0 0 0 1.467-3.54 4.969 4.969 0 0 0-1.179-3.226 2.928 2.928 0 0 1 2.905-2.59 4.766 4.766 0 0 0 4.76-4.76 2.928 2.928 0 0 1 2.925-2.925 4.765 4.765 0 0 0 3.06-1.113.918.918 0 0 0 .112-1.294zm-15.348 18.15l-1.928 1.928a3.15 3.15 0 0 1-2.243.929 3.15 3.15 0 0 1-2.242-.93 3.175 3.175 0 0 1 0-4.484l1.928-1.928a3.15 3.15 0 0 1 2.242-.929c.847 0 1.644.33 2.243.929s.929 1.395.929 2.243a3.15 3.15 0 0 1-.93 2.242zM44.97 1.12h-.003a.922.922 0 0 0-.918.915v.016c0 .506.409.912.915.913h.003a.922.922 0 0 0 .918-.915v-.016a.914.914 0 0 0-.915-.914zM15.904 6.571a1.383 1.383 0 0 1-.219-.749c0-.372.145-.722.409-.985.61-.61.946-1.421.946-2.284 0-.863-.336-1.674-.946-2.284a.918.918 0 0 0-1.299 1.298c.264.263.409.613.409.986 0 .372-.145.722-.409.985a3.233 3.233 0 0 0-.775 3.317 3.383 3.383 0 0 0-1.954 3.063v1.64a3.383 3.383 0 0 0 3.379 3.38 3.383 3.383 0 0 0 3.378-3.38v-1.64a3.383 3.383 0 0 0-2.919-3.347zm1.083 4.987c0 .851-.692 1.543-1.542 1.543-.851 0-1.543-.692-1.543-1.543v-1.64c0-.85.692-1.543 1.543-1.543.85 0 1.542.692 1.542 1.543v1.64zM46.73 31.89a.918.918 0 0 0-1.297 0 1.457 1.457 0 0 1-1.09.43 1.466 1.466 0 0 1-.992-.43 3.312 3.312 0 0 0-3.424-.786 3.466 3.466 0 0 0-3.15-2.027h-1.695a3.466 3.466 0 0 0-3.462 3.461A3.466 3.466 0 0 0 35.082 36h1.696a3.466 3.466 0 0 0 3.43-3.005 1.474 1.474 0 0 1 1.845.193 3.296 3.296 0 0 0 2.337.968c.874 0 1.722-.35 2.34-.968a.918.918 0 0 0 0-1.299zm-8.326.649c0 .896-.73 1.625-1.626 1.625h-1.696c-.897 0-1.626-.729-1.626-1.626 0-.896.73-1.625 1.626-1.625h1.696c.896 0 1.625.729 1.626 1.625z"/>
    </g>
</svg>
